<svg width="92" height="90" viewBox="0 0 24 22" fill="none" xmlns="http://www.w3.org/2000/svg">
<g clip-path="url(#clip0_421_1476)">
<path d="M19.9427 4.20312H3.97754V21.3381H19.9427V4.20312Z" fill="url(#paint0_linear_421_1476)"/>
<path d="M3.91152 4.2039C3.93079 4.2039 3.95006 4.21216 3.97759 4.22042C3.97759 9.92107 3.97759 15.6217 3.97759 21.3306C2.74167 21.427 1.69843 21.1159 0.869892 20.3177C0.283586 19.7506 6.70622e-05 19.0845 6.70622e-05 18.3303C6.70622e-05 15.6603 6.70622e-05 12.993 6.70622e-05 10.323C6.70622e-05 9.30449 -0.00268555 8.28602 -0.00268555 7.26755C-0.00268555 6.03714 0.660693 5.14254 1.8801 4.53697C2.50769 4.22867 3.2041 4.18188 3.91152 4.2039Z" fill="url(#paint1_linear_421_1476)"/>
<path d="M17.1543 4.19964C17.8672 4.19964 17.9387 4.19964 18.6489 4.19964C18.6489 9.91956 18.6489 15.6202 18.6489 21.3319C13.8016 21.3319 10.1351 21.3319 5.27124 21.3319C5.27124 15.623 5.27124 9.92231 5.27124 4.20514C5.98141 4.20514 6.13556 4.20514 6.8595 4.20514C6.8595 4.13357 6.8595 4.07852 6.8595 4.02622C6.8595 3.41239 6.86225 2.79581 6.85674 2.18197C6.85124 1.75257 6.96685 1.37821 7.30267 1.08644C7.53939 0.882742 7.8119 0.778143 8.12019 0.778143C9.07535 0.775391 10.0277 0.775391 10.9829 0.775391C12.5877 0.775391 14.1952 0.778143 15.8 0.775391C16.2211 0.775391 16.5707 0.913021 16.846 1.23232C17.0662 1.48832 17.1487 1.78835 17.1487 2.12417C17.146 2.77103 17.1487 3.41789 17.1487 4.06476C17.146 4.10054 17.1488 4.14183 17.1543 4.19964ZM8.58263 4.19964C8.64869 4.19964 8.69824 4.19964 8.74779 4.19964C9.50751 4.19964 10.27 4.19964 11.0297 4.19964C12.45 4.19964 13.8731 4.19964 15.2935 4.20239C15.4063 4.20239 15.4311 4.1666 15.4311 4.05925C15.4256 3.57755 15.4311 3.09584 15.4311 2.61413C15.4311 2.5756 15.4256 2.53706 15.4201 2.49577C13.1354 2.49577 10.8645 2.49577 8.58263 2.49577C8.58263 3.06281 8.58263 3.61884 8.58263 4.19964Z" fill="white"/>
<mask id="mask0_421_1476" style="mask-type:alpha" maskUnits="userSpaceOnUse" x="5" y="0" width="14" height="22">
<path d="M17.1543 4.19964C17.8672 4.19964 17.9387 4.19964 18.6489 4.19964C18.6489 9.91956 18.6489 15.6202 18.6489 21.3319C13.8016 21.3319 10.1351 21.3319 5.27124 21.3319C5.27124 15.623 5.27124 9.92231 5.27124 4.20514C5.98141 4.20514 6.13556 4.20514 6.8595 4.20514C6.8595 4.13357 6.8595 4.07852 6.8595 4.02622C6.8595 3.41239 6.86225 2.79581 6.85674 2.18197C6.85124 1.75257 6.96685 1.37821 7.30267 1.08644C7.53939 0.882742 7.8119 0.778143 8.12019 0.778143C9.07535 0.775391 10.0277 0.775391 10.9829 0.775391C12.5877 0.775391 14.1952 0.778143 15.8 0.775391C16.2211 0.775391 16.5707 0.913021 16.846 1.23232C17.0662 1.48832 17.1487 1.78835 17.1487 2.12417C17.146 2.77103 17.1487 3.41789 17.1487 4.06476C17.146 4.10054 17.1487 4.14183 17.1543 4.19964ZM8.58263 4.19964C8.64869 4.19964 8.69824 4.19964 8.74779 4.19964C9.50751 4.19964 10.27 4.19964 11.0297 4.19964C12.45 4.19964 13.8731 4.19964 15.2935 4.20239C15.4063 4.20239 15.4311 4.1666 15.4311 4.05925C15.4256 3.57755 15.4311 3.09584 15.4311 2.61413C15.4311 2.5756 15.4256 2.53706 15.4201 2.49577C13.1354 2.49577 10.8645 2.49577 8.58263 2.49577C8.58263 3.06281 8.58263 3.61884 8.58263 4.19964Z" fill="#F7F9FC"/>
</mask>
<g mask="url(#mask0_421_1476)">
<path d="M17.4288 0H6.30005V4.20599H17.4288V0Z" fill="url(#paint2_linear_421_1476)"/>
</g>
<path d="M24 7.2226C24 6.08852 23.3807 5.24347 22.2797 4.62964C21.6025 4.25253 20.8345 4.18097 20.0473 4.19748C19.9262 4.20023 19.9427 4.26354 19.9427 4.32961C19.9427 6.31149 19.9427 8.29061 19.9427 10.2725C19.9427 13.7545 19.9427 17.2338 19.9399 20.7159C19.9399 20.9168 19.9399 21.1178 19.9399 21.3352C20.4354 21.3517 20.9061 21.3545 21.3685 21.2444C22.932 20.8755 23.9973 19.7112 23.9973 18.3376C24.0028 14.6354 24 10.9276 24 7.2226Z" fill="url(#paint3_linear_421_1476)"/>
<path d="M13.2648 14.0362C13.2648 14.3913 13.2648 14.7271 13.2648 15.0657C13.2648 15.4483 13.2648 15.8309 13.2648 16.2108C13.2648 16.4392 13.1492 16.5604 12.9235 16.5604C12.3014 16.5631 11.6793 16.5631 11.0572 16.5604C10.8508 16.5604 10.7351 16.431 10.7351 16.2135C10.7351 15.5309 10.7351 14.8482 10.7351 14.1656C10.7351 14.127 10.7351 14.0858 10.7351 14.0362C10.6828 14.0362 10.6443 14.0362 10.603 14.0362C9.93139 14.0362 9.257 14.0362 8.58536 14.0362C8.31836 14.0362 8.20825 13.9289 8.20825 13.6619C8.20825 13.07 8.20825 12.4782 8.20825 11.8864C8.20825 11.6167 8.3156 11.5093 8.58261 11.5093C9.25149 11.5093 9.92037 11.5093 10.5893 11.5093C10.6333 11.5093 10.6746 11.5093 10.7324 11.5093C10.7324 11.4653 10.7324 11.4295 10.7324 11.3937C10.7324 10.7111 10.7324 10.0284 10.7324 9.34577C10.7324 9.09253 10.8453 8.98242 11.0985 8.98242C11.6903 8.98242 12.2821 8.98242 12.8739 8.98242C13.1519 8.98242 13.2593 9.08702 13.2593 9.37054C13.262 10.0477 13.2593 10.7221 13.2593 11.3992C13.2593 11.4322 13.2593 11.4653 13.2593 11.5121C13.3033 11.5121 13.3419 11.5121 13.3777 11.5121C14.0603 11.5121 14.7429 11.5121 15.4256 11.5148C15.6761 11.5148 15.7834 11.6249 15.7834 11.8754C15.7834 12.47 15.7834 13.0645 15.7834 13.6591C15.7834 13.9316 15.6788 14.0362 15.4118 14.0362C14.7319 14.0362 14.052 14.0362 13.3749 14.039C13.3474 14.0362 13.3143 14.0362 13.2648 14.0362Z" fill="url(#paint4_linear_421_1476)"/>
</g>
<defs>
<linearGradient id="paint0_linear_421_1476" x1="3.97794" y1="12.7696" x2="19.9419" y2="12.7696" gradientUnits="userSpaceOnUse">
<stop stop-color="#B0F4FF"/>
<stop offset="1" stop-color="#69DCFC"/>
</linearGradient>
<linearGradient id="paint1_linear_421_1476" x1="6.70623e-05" y1="12.7731" x2="3.97799" y2="12.7731" gradientUnits="userSpaceOnUse">
<stop stop-color="#6CBCFC"/>
<stop offset="1" stop-color="#458DFC"/>
</linearGradient>
<linearGradient id="paint2_linear_421_1476" x1="6.2989" y1="2.10255" x2="17.4284" y2="2.10255" gradientUnits="userSpaceOnUse">
<stop stop-color="#6CBCFC"/>
<stop offset="1" stop-color="#458DFC"/>
</linearGradient>
<linearGradient id="paint3_linear_421_1476" x1="19.9406" y1="12.7705" x2="24.0003" y2="12.7705" gradientUnits="userSpaceOnUse">
<stop stop-color="#6CBCFC"/>
<stop offset="1" stop-color="#458DFC"/>
</linearGradient>
<linearGradient id="paint4_linear_421_1476" x1="8.20994" y1="12.7741" x2="15.7889" y2="12.7741" gradientUnits="userSpaceOnUse">
<stop stop-color="#6CBCFC"/>
<stop offset="1" stop-color="#458DFC"/>
</linearGradient>
<clipPath id="clip0_421_1476">
<rect width="24" height="21.3465" fill="white"/>
</clipPath>
</defs>
</svg>
