<svg width="92" height="90" viewBox="0 0 24 24" fill="none" xmlns="http://www.w3.org/2000/svg">
<g clip-path="url(#clip0_421_1422)">
<path d="M14.6684 11.3017L12.2997 13.5627L2.297 23.1091C2.0344 23.3603 1.69753 23.4859 1.36066 23.4859C0.991964 23.4859 0.623264 23.3363 0.355359 23.0396C-0.172492 22.457 -0.103527 21.5456 0.5039 21.0485L12.2997 11.4353L13.5994 10.377L14.6684 11.3017Z" fill="url(#paint0_linear_421_1422)"/>
<path d="M12.1963 13.6773L9.86476 15.9008L9.6499 13.6158L10.9258 12.5762L12.1963 13.6773Z" fill="#3A81D6" fill-opacity="0.8"/>
<path d="M23.9997 7.8039C23.9997 12.1148 20.5303 15.6105 16.2544 15.6105C13.5594 15.6105 11.1854 14.2234 9.79816 12.1174C8.98383 10.8827 8.50903 9.39943 8.50903 7.8039C8.50903 3.49305 11.9785 0 16.2544 0C18.1854 0 19.9493 0.710904 21.3048 1.88683C22.9547 3.31933 23.9997 5.43868 23.9997 7.8039Z" fill="url(#paint1_linear_421_1422)"/>
<path d="M16.2545 13.8848C19.5872 13.8848 22.2889 11.1627 22.2889 7.80471C22.2889 4.44676 19.5872 1.72461 16.2545 1.72461C12.9217 1.72461 10.22 4.44676 10.22 7.80471C10.22 11.1627 12.9217 13.8848 16.2545 13.8848Z" fill="white"/>
<path opacity="0.06" d="M23.9999 7.80379C23.9999 12.1146 20.5304 15.6104 16.2546 15.6104C13.5596 15.6104 11.1856 14.2233 9.79834 12.1173C18.5331 11.4011 20.8355 3.9446 21.3076 1.88672C22.9548 3.31922 23.9999 5.43856 23.9999 7.80379Z" fill="#1A6FB5" fill-opacity="0.5"/>
<path d="M16.2548 7.8167C16.9551 7.8167 17.5227 7.24477 17.5227 6.53921C17.5227 5.83365 16.9551 5.26172 16.2548 5.26172C15.5545 5.26172 14.9869 5.83365 14.9869 6.53921C14.9869 7.24477 15.5519 7.8167 16.2548 7.8167ZM16.2548 8.45544C15.4086 8.45544 13.719 8.88305 13.719 9.73293V10.0536C13.719 10.23 13.8622 10.3743 14.0373 10.3743H18.4776C18.6527 10.3743 18.7959 10.23 18.7959 10.0536V9.73293C18.7906 8.88572 17.101 8.45544 16.2548 8.45544Z" fill="url(#paint2_linear_421_1422)"/>
</g>
<defs>
<linearGradient id="paint0_linear_421_1422" x1="1.48064" y1="22.0028" x2="14.0705" y2="10.6434" gradientUnits="userSpaceOnUse">
<stop stop-color="#67C3F3"/>
<stop offset="1" stop-color="#5A98F2"/>
</linearGradient>
<linearGradient id="paint1_linear_421_1422" x1="13.0509" y1="0.551442" x2="18.9908" y2="13.8047" gradientUnits="userSpaceOnUse">
<stop stop-color="#67C3F3"/>
<stop offset="1" stop-color="#5A98F2"/>
</linearGradient>
<linearGradient id="paint2_linear_421_1422" x1="14.4215" y1="7.40852" x2="19.0272" y2="9.63801" gradientUnits="userSpaceOnUse">
<stop stop-color="#B0F4FF"/>
<stop offset="0.071077" stop-color="#A6F1FF"/>
<stop offset="0.2937" stop-color="#8BE8FD"/>
<stop offset="0.5209" stop-color="#78E1FD"/>
<stop offset="0.7536" stop-color="#6DDDFC"/>
<stop offset="1" stop-color="#69DCFC"/>
</linearGradient>
<clipPath id="clip0_421_1422">
<rect width="24" height="23.4839" fill="white"/>
</clipPath>
</defs>
</svg>
