<svg width="92" height="90" viewBox="0 0 24 34" fill="none" xmlns="http://www.w3.org/2000/svg">
<g clip-path="url(#clip0_421_1454)">
<path d="M24 32.3623C24 33.2494 23.2821 33.9702 22.3951 33.9702L1.64054 33.994C0.934487 33.994 0.335229 33.5401 0.118665 32.9082C0.0622991 32.745 0.0326329 32.573 0.0326329 32.392L0 2.46172C0 1.5747 0.717923 0.853811 1.60494 0.853811L20.6625 0.833045L22.3595 0.830078C23.2465 0.830078 23.9674 1.548 23.9674 2.43502L24 32.3623Z" fill="url(#paint0_linear_421_1454)"/>
<path d="M21.8492 32.1915L2.18348 32.2123C1.70585 32.2123 1.32019 31.8267 1.32019 31.349L1.29053 3.49538C1.29053 3.01776 1.67619 2.63209 2.15382 2.63209L21.8166 2.61133C22.2942 2.61133 22.6799 2.99699 22.6799 3.47462L22.7096 31.3283C22.7125 31.8029 22.3269 32.1915 21.8492 32.1915Z" fill="white"/>
<path d="M19.0873 4.90666L4.7437 4.92446C4.26904 4.92446 3.88041 4.5388 3.88041 4.06414L3.87744 1.67304C3.87744 1.19838 4.2631 0.809755 4.73776 0.809755L19.0844 0.794922C19.559 0.794922 19.9477 1.18058 19.9477 1.65524L19.9506 4.04634C19.9477 4.521 19.562 4.90666 19.0873 4.90666ZM4.73776 1.24882C4.50637 1.24882 4.3165 1.43868 4.3165 1.67008L4.31947 4.06118C4.31947 4.29257 4.50933 4.48244 4.74073 4.48244L19.0873 4.4676C19.3187 4.4676 19.5086 4.27774 19.5086 4.04634L19.5056 1.65524C19.5056 1.42385 19.3158 1.23398 19.0844 1.23398L4.73776 1.24882Z" fill="url(#paint1_linear_421_1454)"/>
<path d="M18.6806 1.83041L5.28628 1.84524C5.13795 1.84524 5.01929 1.72658 5.01929 1.57824V0.281829C5.01929 0.133498 5.13795 0.0148331 5.28628 0.0148331L18.6776 0C18.826 0 18.9446 0.118665 18.9446 0.266996V1.56341C18.9476 1.71174 18.8289 1.83041 18.6806 1.83041Z" fill="url(#paint2_linear_421_1454)"/>
<path d="M5.29819 1.84457L18.6688 1.82974C18.823 1.82974 18.9476 1.70514 18.9476 1.55087V0.916016L5.01636 0.930849V1.56571C5.01636 1.71997 5.14392 1.84457 5.29819 1.84457Z" fill="#58D6F4"/>
<path d="M9.99769 29.0585L8.84071 22.0572L7.90326 25.104L5.22143 25.1069C5.05827 25.1069 4.92773 24.9764 4.92773 24.8132C4.92773 24.6501 5.05827 24.5195 5.22143 24.5195L7.4731 24.5166L9.01871 19.5L10.1757 26.519L11.6768 21.6983L12.4748 23.9826L14.2726 19.6246L16.0199 26.5368L16.6785 24.3386L18.6068 24.3356C18.77 24.3356 18.9005 24.4661 18.9005 24.6293C18.9005 24.7925 18.77 24.923 18.6068 24.923L17.1146 24.926L15.9725 28.7381L14.1391 21.4876L12.4274 25.632L11.7065 23.5702L9.99769 29.0585Z" fill="#58D6F4"/>
<path d="M8.01002 15.56L4.23944 15.5629C3.63128 15.5629 3.13289 15.0675 3.13289 14.4593L3.12695 9.18764C3.12695 8.57949 3.62238 8.08109 4.23054 8.08109L8.00112 8.07812C8.60928 8.07812 9.10767 8.57355 9.10767 9.18171L9.11361 14.4534C9.11361 15.0616 8.61818 15.557 8.01002 15.56ZM4.22757 8.40149C3.79444 8.40149 3.44438 8.75452 3.44438 9.18764L3.45032 14.4593C3.45032 14.8925 3.80334 15.2425 4.23647 15.2425L8.00705 15.2396C8.44018 15.2396 8.79024 14.8865 8.79024 14.4534L8.78431 9.18171C8.78431 8.74858 8.43128 8.39852 7.99815 8.39852L4.22757 8.40149Z" fill="url(#paint3_linear_421_1454)"/>
<path d="M6.12015 14.5484C7.90309 14.5455 8.45785 13.516 8.45785 13.516C8.37775 13.4152 8.27689 13.3262 8.14042 13.2372C7.67169 12.9316 7.29493 12.8011 7.1377 12.6706C6.9775 12.543 6.8885 12.3561 6.8885 12.3561L6.79061 12.4154C6.79061 12.4154 6.73127 12.2107 6.76391 11.8992C6.76391 11.8992 6.90334 11.8636 7.00717 11.3919C7.1733 11.4246 7.3691 11.0033 7.27713 10.849C7.2178 10.7482 7.1466 10.7571 7.09617 10.7808C7.1466 10.5702 7.37503 9.4043 6.11718 9.4043C4.85933 9.4043 5.08776 10.5702 5.14116 10.7808C5.09073 10.7571 5.01953 10.7482 4.9602 10.849C4.86823 11.0033 5.06699 11.4246 5.23313 11.3919C5.33696 11.8636 5.47936 11.8963 5.47936 11.8963C5.51496 12.2048 5.45266 12.4125 5.45266 12.4125L5.35476 12.3531C5.35476 12.3531 5.26576 12.5371 5.10556 12.6676C4.94536 12.7981 4.57157 12.9316 4.10284 13.2372C3.96638 13.3262 3.86254 13.4152 3.78541 13.516C3.78245 13.522 4.34017 14.5514 6.12015 14.5484Z" fill="url(#paint4_linear_421_1454)"/>
<path d="M17.862 9.76056L10.6027 9.76946C10.4662 9.76946 10.3564 9.65969 10.3564 9.52323V9.48169C10.3564 9.34523 10.4662 9.23546 10.6027 9.23546L17.862 9.22656C17.9985 9.22656 18.1082 9.33633 18.1082 9.47279V9.51433C18.1082 9.65079 17.9955 9.76056 17.862 9.76056Z" fill="url(#paint5_linear_421_1454)"/>
<path d="M15.192 11.1434L10.6027 11.1493C10.4662 11.1493 10.3564 11.0395 10.3564 10.9031V10.8615C10.3564 10.7251 10.4662 10.6153 10.6027 10.6153L15.192 10.6094C15.3285 10.6094 15.4383 10.7191 15.4383 10.8556V10.8971C15.4383 11.0336 15.3285 11.1434 15.192 11.1434Z" fill="url(#paint6_linear_421_1454)"/>
<path opacity="0.6" d="M20.3658 12.7859L10.6056 12.7978C10.4691 12.7978 10.3594 12.688 10.3594 12.5516V12.5101C10.3594 12.3736 10.4691 12.2638 10.6056 12.2638L20.3658 12.252C20.5023 12.252 20.612 12.3617 20.612 12.4982V12.5397C20.6091 12.6762 20.4993 12.7859 20.3658 12.7859Z" fill="url(#paint7_linear_421_1454)"/>
<path opacity="0.6" d="M20.1551 17.4051L3.87427 17.4229C3.73484 17.4229 3.61914 17.3102 3.61914 17.1678V17.144C3.61914 17.0046 3.73187 16.8889 3.87427 16.8889L20.1551 16.8711C20.2945 16.8711 20.4102 16.9838 20.4102 17.1262V17.15C20.4102 17.2924 20.2945 17.4051 20.1551 17.4051Z" fill="url(#paint8_linear_421_1454)"/>
<path opacity="0.6" d="M20.3658 14.3992L10.6056 14.4111C10.4691 14.4111 10.3594 14.3013 10.3594 14.1649V14.1233C10.3594 13.9869 10.4691 13.8771 10.6056 13.8771L20.3658 13.8652C20.5023 13.8652 20.612 13.975 20.612 14.1115V14.153C20.612 14.2895 20.5023 14.3992 20.3658 14.3992Z" fill="url(#paint9_linear_421_1454)"/>
</g>
<defs>
<linearGradient id="paint0_linear_421_1454" x1="-3.32355" y1="12.4325" x2="27.3235" y2="22.3903" gradientUnits="userSpaceOnUse">
<stop stop-color="#6CBCFC"/>
<stop offset="0.1713" stop-color="#5EABFC"/>
<stop offset="0.4084" stop-color="#509AFC"/>
<stop offset="0.6698" stop-color="#4890FC"/>
<stop offset="1" stop-color="#458DFC"/>
</linearGradient>
<linearGradient id="paint1_linear_421_1454" x1="-1.86947" y1="-7.64824" x2="19.9483" y2="2.85863" gradientUnits="userSpaceOnUse">
<stop stop-color="#CFE9FF"/>
<stop offset="1" stop-color="#A1D6FB"/>
</linearGradient>
<linearGradient id="paint2_linear_421_1454" x1="5.01589" y1="0.922968" x2="18.9474" y2="0.922968" gradientUnits="userSpaceOnUse">
<stop stop-color="#B0F4FF"/>
<stop offset="1" stop-color="#69DCFC"/>
</linearGradient>
<linearGradient id="paint3_linear_421_1454" x1="5.05771" y1="10.4506" x2="8.55728" y2="14.9683" gradientUnits="userSpaceOnUse">
<stop stop-color="#6CBCFC"/>
<stop offset="1" stop-color="#458DFC"/>
</linearGradient>
<linearGradient id="paint4_linear_421_1454" x1="4.67801" y1="10.7448" x2="8.17759" y2="15.2624" gradientUnits="userSpaceOnUse">
<stop stop-color="#B0F4FF"/>
<stop offset="0.0994384" stop-color="#A1EFFE"/>
<stop offset="0.2994" stop-color="#88E7FD"/>
<stop offset="0.5095" stop-color="#77E1FD"/>
<stop offset="0.7344" stop-color="#6CDDFC"/>
<stop offset="1" stop-color="#69DCFC"/>
</linearGradient>
<linearGradient id="paint5_linear_421_1454" x1="10.3569" y1="9.50044" x2="18.1067" y2="9.50509" gradientUnits="userSpaceOnUse">
<stop stop-color="#6CBCFC"/>
<stop offset="1" stop-color="#458DFC"/>
</linearGradient>
<linearGradient id="paint6_linear_421_1454" x1="10.3583" y1="10.8793" x2="15.438" y2="10.8793" gradientUnits="userSpaceOnUse">
<stop stop-color="#6CBCFC"/>
<stop offset="1" stop-color="#458DFC"/>
</linearGradient>
<linearGradient id="paint7_linear_421_1454" x1="10.3599" y1="12.5265" x2="20.6104" y2="12.5265" gradientUnits="userSpaceOnUse">
<stop stop-color="#6CBCFC"/>
<stop offset="1" stop-color="#458DFC"/>
</linearGradient>
<linearGradient id="paint8_linear_421_1454" x1="3.619" y1="17.1485" x2="20.4094" y2="17.1485" gradientUnits="userSpaceOnUse">
<stop stop-color="#6CBCFC"/>
<stop offset="1" stop-color="#458DFC"/>
</linearGradient>
<linearGradient id="paint9_linear_421_1454" x1="10.3616" y1="14.1394" x2="20.612" y2="14.1394" gradientUnits="userSpaceOnUse">
<stop stop-color="#6CBCFC"/>
<stop offset="1" stop-color="#458DFC"/>
</linearGradient>
<clipPath id="clip0_421_1454">
<rect width="24" height="33.9916" fill="white"/>
</clipPath>
</defs>
</svg>
