<svg width="92" height="90" viewBox="0 0 25 33" fill="none" xmlns="http://www.w3.org/2000/svg">
<g clip-path="url(#clip0_421_1439)">
<path d="M24.1241 10.2733L24.0494 25.7156L24.0369 28.7024C24.0245 31.0757 21.7572 32.9905 18.9667 32.9781L5.02649 32.9162C2.24219 32.8976 -0.0126505 30.9642 -0.000192768 28.5847L0.0870111 10.1555C0.09324 8.23454 1.58816 6.61099 3.63123 6.07188L3.63746 5.0804V4.57227L20.6235 4.65282L20.6173 6.15244C22.6541 6.71634 24.1304 8.34608 24.1241 10.2733Z" fill="url(#paint0_linear_421_1439)"/>
<path d="M21.8879 0.687839V0.824167L21.8755 2.43532L21.863 4.01549V4.20759C21.863 4.50504 21.6138 4.74671 21.3149 4.74671H21.1841L20.3618 4.74051L19.4587 4.73432L18.6365 4.72812L17.7333 4.72192L16.8986 4.70953L15.9954 4.70333L15.1732 4.69713L14.2638 4.69094L13.4354 4.68474L12.5322 4.67854L11.71 4.66615L10.8068 4.65995L9.98457 4.65376L9.07516 4.64756L8.24672 4.64136L7.34977 4.63517L6.52756 4.62897L5.62438 4.62277L4.79594 4.61658L3.89276 4.61038L3.06432 4.60418H2.93351C2.63453 4.60418 2.3916 4.35631 2.3916 4.05887V4.05267V3.91634L2.41652 0.731216V0.539117C2.41652 0.241673 2.66567 0 2.97088 0H3.10169L4.83331 0.0123935L6.56493 0.024787L7.39337 0.0309837L8.29655 0.0371805L9.11876 0.0433772L10.8442 0.0619675L11.7473 0.0681642L12.5695 0.074361L13.4727 0.0805577L14.2949 0.0867545L15.1981 0.0929512L16.0203 0.099148L16.9235 0.105345L17.7457 0.111541L18.6614 0.123935L19.4836 0.130132L20.3868 0.136328L21.2152 0.142525H21.346C21.6512 0.148722 21.8879 0.390395 21.8879 0.687839Z" fill="url(#paint1_linear_421_1439)"/>
<path d="M21.8879 0.829617L21.8755 2.43457L21.863 4.01475L21.1218 4.00855L20.1376 4.00235L19.2344 3.99616H18.244L17.3409 3.98996L16.3567 3.98376L15.4535 3.97757H14.4631L13.5599 3.97137L12.5695 3.96517L11.6726 3.95898H10.6822L9.77902 3.95278L8.78864 3.94658L7.88545 3.94039H6.90129L5.99811 3.93419L5.00772 3.92799L4.10454 3.92179H3.12038L2.3916 3.9156L2.41652 0.730469L4.14814 0.736665L6.03548 0.749059L6.93867 0.755256L7.92905 0.761452H8.83224L10.7196 0.773846L11.71 0.780043H12.6132L13.6035 0.786239L14.5005 0.792436L15.4909 0.798633H16.3941L17.3845 0.80483L18.2814 0.811027L19.2718 0.817223H20.175L21.1654 0.82342L21.8879 0.829617Z" fill="url(#paint2_linear_421_1439)"/>
<path d="M24.106 13.535L0.0688477 13.4219L0.0184463 24.0245L24.0556 24.1376L24.106 13.535Z" fill="#F7F9FC"/>
<path d="M24.1102 13.5349L0.072998 13.4219L0.0639282 15.3305L24.1011 15.4435L24.1102 13.5349Z" fill="#FBFCF7"/>
<path d="M9.44258 17.6846L7.89159 17.6784L7.89782 16.1292L5.76132 16.123L5.75509 17.666L4.20411 17.6598L4.19165 19.7791L5.74264 19.7853L5.73641 21.3345L7.8729 21.3407L7.87913 19.7977L9.43012 19.8039L9.44258 17.6846Z" fill="url(#paint3_linear_421_1439)"/>
<path d="M19.982 18.1984L12.2956 18.1613C12.0901 18.1613 11.9219 17.9939 11.9219 17.7895V17.6159C11.9219 17.4115 12.0901 17.2441 12.2956 17.2441L19.982 17.2813C20.1876 17.2813 20.3557 17.4486 20.3557 17.6531V17.8266C20.3557 18.0311 20.1876 18.1984 19.982 18.1984Z" fill="url(#paint4_linear_421_1439)"/>
<path opacity="0.5" d="M19.9757 20.4738L12.2893 20.4366C12.0837 20.4366 11.9155 20.2693 11.9155 20.0648V19.8913C11.9155 19.6868 12.0837 19.5195 12.2893 19.5195L19.9757 19.5567C20.1812 19.5567 20.3494 19.724 20.3494 19.9285V20.102C20.3494 20.3065 20.1812 20.4738 19.9757 20.4738Z" fill="url(#paint5_linear_421_1439)"/>
<path opacity="0.08" d="M2.3916 0.687892V0.82422L2.40406 2.43537L2.41652 4.00935V4.20145C2.41652 4.49889 2.66567 4.74056 2.96466 4.74056H3.09546L3.9239 4.73437L4.82708 4.72817L5.64929 4.72197L6.55248 4.71578L7.37469 4.70958L8.27787 4.70338L9.10008 4.69719L10.0033 4.69099L10.8317 4.68479L11.7349 4.6786L12.5571 4.6724L13.4603 4.6662L14.2825 4.66001L15.1857 4.65381L16.0141 4.64761L16.9173 4.64142L17.7395 4.63522L18.6427 4.62902L19.4649 4.62283L20.3681 4.61663L21.1965 4.61043H21.3273C21.6263 4.61043 21.8692 4.36256 21.8692 4.06512V4.05892V3.92259C12.2332 4.33778 2.93351 0.142578 2.93351 0.142578C2.63453 0.148775 2.3916 0.390448 2.3916 0.687892Z" fill="#1A6FB5"/>
</g>
<defs>
<linearGradient id="paint0_linear_421_1439" x1="-0.000192895" y1="4.39628" x2="22.1332" y2="35.1022" gradientUnits="userSpaceOnUse">
<stop stop-color="#6CBCFC"/>
<stop offset="1" stop-color="#458DFC"/>
</linearGradient>
<linearGradient id="paint1_linear_421_1439" x1="-245.673" y1="-15.4928" x2="-10.7776" y2="0.952824" gradientUnits="userSpaceOnUse">
<stop stop-color="#B0F4FF"/>
<stop offset="0.0525488" stop-color="#A9F2FF"/>
<stop offset="0.2879" stop-color="#8DE8FE"/>
<stop offset="0.5247" stop-color="#79E1FD"/>
<stop offset="0.7618" stop-color="#6DDDFC"/>
<stop offset="1" stop-color="#69DCFC"/>
</linearGradient>
<linearGradient id="paint2_linear_421_1439" x1="2.39429" y1="2.37108" x2="21.8887" y2="2.37108" gradientUnits="userSpaceOnUse">
<stop stop-color="#B0F4FF"/>
<stop offset="0.0525488" stop-color="#A9F2FF"/>
<stop offset="0.2879" stop-color="#8DE8FE"/>
<stop offset="0.5247" stop-color="#79E1FD"/>
<stop offset="0.7618" stop-color="#6DDDFC"/>
<stop offset="1" stop-color="#69DCFC"/>
</linearGradient>
<linearGradient id="paint3_linear_421_1439" x1="8.57101" y1="16.7205" x2="4.93421" y2="20.936" gradientUnits="userSpaceOnUse">
<stop stop-color="#6CBCFC"/>
<stop offset="1" stop-color="#458DFC"/>
</linearGradient>
<linearGradient id="paint4_linear_421_1439" x1="20.4299" y1="17.7193" x2="11.2656" y2="17.7193" gradientUnits="userSpaceOnUse">
<stop stop-color="#6CBCFC"/>
<stop offset="1" stop-color="#458DFC"/>
</linearGradient>
<linearGradient id="paint5_linear_421_1439" x1="11.915" y1="19.9945" x2="20.3495" y2="19.9945" gradientUnits="userSpaceOnUse">
<stop stop-color="#6CBCFC"/>
<stop offset="1" stop-color="#458DFC"/>
</linearGradient>
<clipPath id="clip0_421_1439">
<rect width="24.1244" height="32.9791" fill="white"/>
</clipPath>
</defs>
</svg>
